Coordinates
version=1
nRows=16
nColumns=40
inDegrees=yes

Units are S.I. units (second, meters, Newtons, ...)
Angles are in degrees.

endheader
time	pelvis_tilt	pelvis_list	pelvis_rotation	pelvis_tx	pelvis_ty	pelvis_tz	hip_flexion_r	hip_adduction_r	hip_rotation_r	knee_angle_r	knee_angle_r_beta	ankle_angle_r	subtalar_angle_r	mtp_angle_r	hip_flexion_l	hip_adduction_l	hip_rotation_l	knee_angle_l	knee_angle_l_beta	ankle_angle_l	subtalar_angle_l	mtp_angle_l	lumbar_extension	lumbar_bending	lumbar_rotation	arm_flex_r	arm_add_r	arm_rot_r	elbow_flex_r	pro_sup_r	wrist_flex_r	wrist_dev_r	arm_flex_l	arm_add_l	arm_rot_l	elbow_flex_l	pro_sup_l	wrist_flex_l	wrist_dev_l
      7.30000000	     -3.07207600	     -4.48640156	      5.34123054	      0.91570252	      0.93284359	      0.50562401	      7.89639444	      4.03620781	    -18.38024080	     13.25656680	     13.25656680	     10.58768645	     -1.52089758	     -5.52975703	     33.75413373	     -9.29625958	     -0.79754860	     35.13316596	     35.13316596	     10.46111234	    -17.87823196	     14.86752681	    -10.81248913	      6.97576918	      4.27537421	     24.41390438	    -17.98119254	     -4.35437308	     72.60314548	     44.86167446	      0.00000000	      0.00000000	     -2.52101498	     -7.03939766	      1.07150910	     26.56298617	     45.87440207	      0.00000000	      0.00000000
      7.31171429	     -3.19553884	     -4.41560430	      5.58725013	      0.91473112	      0.93275651	      0.50506508	      7.34907264	      4.02881939	    -18.49622138	     12.79182308	     12.79182308	     10.78530464	     -1.41649479	     -5.54345289	     34.02386956	     -8.75733797	     -0.80709408	     32.14753105	     32.14753105	     10.05935457	    -16.79949393	     14.89527044	    -10.72797777	      6.87553949	      4.27552366	     26.21966824	    -18.00646491	     -4.65832334	     74.22313603	     44.83120178	      0.00000000	      0.00000000	     -3.25117332	     -7.01670446	      1.18848239	     26.14164244	     45.84169760	      0.00000000	      0.00000000
      7.32342857	     -3.26148216	     -4.52490214	      5.88916331	      0.91396004	      0.93258340	      0.50446126	      6.60822076	      4.24103518	    -18.93863875	     12.07348100	     12.07348100	     10.94136960	     -0.86597089	     -5.62727409	     34.26180961	     -8.41994321	     -0.74667041	     29.37088066	     29.37088066	      9.52124844	    -15.37005507	     14.06193879	    -10.72639482	      7.00669964	      4.07833253	     27.88960480	    -17.91081052	     -4.93497446	     77.02336929	     44.76612550	      0.00000000	      0.00000000	     -4.05356452	     -6.95964970	      1.36632376	     25.78991027	     45.79567780	      0.00000000	      0.00000000
      7.33514286	     -3.39483380	     -4.48391325	      6.11251187	      0.91328007	      0.93245232	      0.50379169	      5.95906218	      4.28045701	    -19.14743900	     11.43007701	     11.43007701	     11.09820550	     -0.43569581	     -5.69043581	     34.43767754	     -8.00605359	     -0.94378229	     26.69636049	     26.69636049	      9.06227104	    -13.54236311	     13.71191102	    -10.60593413	      6.97701895	      4.10530328	     29.37751727	    -17.91274841	     -5.15533281	     79.09482601	     44.71923861	      0.00000000	      0.00000000	     -4.79919194	     -7.01835968	      1.45785257	     25.51466002	     45.76610705	      0.00000000	      0.00000000
      7.34685714	     -3.46219538	     -4.56980530	      6.35439011	      0.91283805	      0.93224847	      0.50312260	      5.13158585	      4.49814741	    -19.53099170	     10.57799874	     10.57799874	     11.19922185	      0.27913761	     -5.78137533	     34.61288656	     -7.77008646	     -1.16589564	     24.41544777	     24.41544777	      8.62450644	    -11.48088138	     12.90890009	    -10.57942866	      7.06416966	      4.08392421	     30.79091688	    -17.89373342	     -5.41499941	     81.82902658	     44.65673990	      0.00000000	      0.00000000	     -5.51539679	     -6.99805772	      1.58628762	     25.36831080	     45.72980474	      0.00000000	      0.00000000
      7.35857143	     -3.59547402	     -4.67395695	      6.55208789	      0.91260637	      0.93183977	      0.50244196	      4.38317485	      4.72318881	    -19.92462804	      9.76367635	      9.76367635	     11.27953363	      1.05043596	     -5.97401730	     34.80937281	     -7.58658248	     -1.48764282	     22.38563335	     22.38563335	      7.96126219	     -9.53966363	     11.46151510	    -10.42848257	      7.14696963	      4.53747815	     31.66343230	    -18.30524969	     -5.97237624	     84.95394114	     44.60902730	      0.00000000	      0.00000000	     -6.06199851	     -7.04248302	      1.85490972	     25.48193548	     45.67188616	      0.00000000	      0.00000000
      7.37028571	     -3.69925784	     -4.63825374	      6.70566081	      0.91242390	      0.93156695	      0.50165254	      3.66816395	      4.79748210	    -20.01675345	      9.11374086	      9.11374086	     11.44910885	      1.35879888	     -5.97291259	     34.83976723	     -7.23917321	     -1.73100700	     20.55262766	     20.55262766	      7.63043304	     -8.06863161	     11.55817309	    -10.25042639	      7.07575276	      4.50302101	     33.17735088	    -18.07905842	     -6.15227069	     86.43301843	     44.58111650	      0.00000000	      0.00000000	     -6.65016300	     -7.05172516	      1.95558559	     25.22259896	     45.64502946	      0.00000000	      0.00000000
      7.38200000	     -3.76848046	     -4.67231159	      6.85122472	      0.91250044	      0.93119866	      0.50084662	      2.81836675	      4.98004408	    -20.21094307	      8.28194713	      8.28194713	     11.55283215	      1.93088355	     -5.94319682	     34.89114233	     -7.02446975	     -2.10960394	     19.22119334	     19.22119334	      7.44031543	     -6.64972076	     11.43317716	    -10.14096190	      7.07484438	      4.43149403	     34.56352274	    -17.82682225	     -6.30294301	     88.29272316	     44.54276687	      0.00000000	      0.00000000	     -7.27080482	     -7.07323147	      2.04205798	     25.09356822	     45.61946938	      0.00000000	      0.00000000
      7.39371429	     -3.94818964	     -4.74751599	      6.94477376	      0.91258212	      0.93050223	      0.49998762	      2.26553135	      5.13043115	    -20.28461817	      7.80097728	      7.80097728	     11.76135587	      2.22286812	     -5.95477373	     35.06832157	     -6.83907477	     -2.38326145	     18.28637858	     18.28637858	      7.19896957	     -5.86284342	     11.49359615	     -9.82715261	      7.10787108	      4.58297188	     35.95439847	    -17.84756532	     -6.46962718	     89.46667462	     44.52146164	      0.00000000	      0.00000000	     -7.72384643	     -7.05789922	      2.07005044	     25.01781165	     45.60655250	      0.00000000	      0.00000000
      7.40542857	     -3.89523293	     -4.73890932	      7.01756068	      0.91309632	      0.93012248	      0.49908891	      1.28608890	      5.26607637	    -20.40283608	      7.04931864	      7.04931864	     11.92780766	      2.83485604	     -5.87560975	     34.83420773	     -6.66598342	     -2.89340257	     17.56769998	     17.56769998	      7.03787563	     -5.11661683	     11.37023557	     -9.79591871	      7.06105661	      4.49094002	     37.04070644	    -17.43934775	     -6.50270366	     91.39197723	     44.47552669	      0.00000000	      0.00000000	     -8.30549067	     -7.11879467	      2.09630963	     25.01201135	     45.59188407	      0.00000000	      0.00000000
      7.41714286	     -3.95905841	     -4.78948559	      7.03853498	      0.91370504	      0.92935423	      0.49816111	      0.56066140	      5.39666052	    -20.50600671	      6.55409625	      6.55409625	     12.20576997	      3.37935327	     -5.75490891	     34.76372517	     -6.55334421	     -3.31416392	     17.31655093	     17.31655093	      6.82576266	     -4.93102796	     11.05237526	     -9.59561917	      7.04858169	      4.65838527	     37.92755123	    -17.36953641	     -6.61978613	     93.16998117	     44.44286179	      0.00000000	      0.00000000	     -8.81252856	     -7.18205730	      2.09763302	     25.23455774	     45.58282247	      0.00000000	      0.00000000
      7.42885714	     -4.01082243	     -4.84842118	      6.99886496	      0.91433430	      0.92847880	      0.49717551	     -0.02581493	      5.47766893	    -20.45141063	      6.37287317	      6.37287317	     12.55537353	      3.64528894	     -5.69052823	     34.57247603	     -6.46067383	     -3.63167993	     17.25855321	     17.25855321	      6.57250051	     -5.16706182	     10.93070083	     -9.39416845	      7.06384235	      4.84837211	     38.94033334	    -17.28866688	     -6.70224804	     94.31052639	     44.42386075	      0.00000000	      0.00000000	     -9.17267976	     -7.21755866	      2.10089787	     25.31215933	     45.57662497	      0.00000000	      0.00000000
      7.44057143	     -4.09312506	     -4.89377525	      6.92451373	      0.91512972	      0.92739845	      0.49608723	     -0.53986700	      5.51020780	    -20.35478849	      6.28906165	      6.28906165	     12.95078571	      3.82211014	     -5.66663729	     34.34305263	     -6.37366783	     -3.96707651	     17.45340545	     17.45340545	      6.30558339	     -5.61676083	     10.86651199	     -9.11582445	      7.03894074	      5.03022364	     39.84686708	    -17.19209640	     -6.72850113	     95.16985432	     44.40739961	      0.00000000	      0.00000000	     -9.45060542	     -7.21683001	      2.09554686	     25.35994451	     45.57301413	      0.00000000	      0.00000000
      7.45228571	     -4.20737503	     -4.96533995	      6.79194346	      0.91614893	      0.92618046	      0.49501312	     -0.98312640	      5.54453241	    -20.17742138	      6.30168452	      6.30168452	     13.36225446	      3.93892060	     -5.73065517	     34.01303779	     -6.34813151	     -4.33494670	     17.72206758	     17.72206758	      6.04869110	     -6.05186856	     10.89547400	     -8.72420343	      7.01753846	      5.26743426	     40.43961289	    -17.12159369	     -6.72909567	     95.63495683	     44.39730759	      0.00000000	      0.00000000	     -9.76854405	     -7.28141503	      2.07588080	     25.30925179	     45.57087576	      0.00000000	      0.00000000
      7.46400000	     -4.21984921	     -5.03474899	      6.68942622	      0.91724072	      0.92489220	      0.49364995	     -1.42849974	      5.50540844	    -20.23204555	      6.58995099	      6.58995099	     14.14964343	      4.37026194	     -5.01235208	     33.48223904	     -6.18832121	     -4.10231004	     18.00906370	     18.00906370	      5.21598241	     -7.54837467	     10.16210426	     -8.61504351	      7.05908779	      5.28494669	     40.94909279	    -16.94180857	     -6.45519159	     97.79378572	     44.35329142	      0.00000000	      0.00000000	    -10.23869042	     -7.29816857	      1.94872045	     26.10718503	     45.58443864	      0.00000000	      0.00000000
      7.47571429	     -4.29392843	     -5.11774256	      6.51540005	      0.91840796	      0.92344366	      0.49234457	     -1.72121774	      5.44551012	    -20.09429434	      7.05111608	      7.05111608	     14.93750827	      4.52374399	     -4.45451364	     32.98836825	     -6.13579608	     -4.15003410	     18.42459289	     18.42459289	      4.48068845	     -8.55067907	      9.54233254	     -8.34617278	      7.06351726	      5.39994579	     41.39983447	    -16.82204409	     -6.35179186	     98.61197508	     44.35778956	      0.00000000	      0.00000000	    -10.48508828	     -7.33770144	      1.90158785	     26.45536152	     45.59233305	      0.00000000	      0.00000000
